# xmcd CD database file
#
# Track frame offsets:
#	150
#	17087
#	31433
#	49178
#	68649
#	84425
#	99139
#	112631
#	130032
#	146228
#	163828
#	189662
#
# Disc length: 2750 seconds
#
# Revision: 0
# Processed by: cddbd v1.5.2PL0 Copyright (c) Steve Scherf et al.
# Submitted via: CDex 1.51
#
DISCID=960abc0c
DTITLE=Avishai Cohen - 1970
DYEAR=2017
DGENRE=Jazz
TTITLE0=Song of Hope
TTITLE1=My Lady
TTITLE2=It's Been so Long
TTITLE3=Se'i Yona
TTITLE4=Emptiness
TTITLE5=For No One
TTITLE6=Motherless Child
TTITLE7=D'ror Yikra
TTITLE8=Move on
TTITLE9=Ha'ahava
TTITLE10=Vamonos Pa'l Monte
TTITLE11=Blinded
EXTD=YEAR: 2017
EXTT0=
EXTT1=
EXTT2=
EXTT3=
EXTT4=
EXTT5=
EXTT6=
EXTT7=
EXTT8=
EXTT9=
EXTT10=
EXTT11=
PLAYORDER=
